<svg width="512" height="512" viewBox="0 0 512 512" xmlns="http://www.w3.org/2000/svg">
  <defs>
    <linearGradient id="surface" x1="96" y1="40" x2="416" y2="500" gradientUnits="userSpaceOnUse">
      <stop stop-color="#303236"/>
      <stop offset="0.45" stop-color="#111316"/>
      <stop offset="1" stop-color="#060708"/>
    </linearGradient>
    <linearGradient id="blueA" x1="139" y1="86" x2="220" y2="426" gradientUnits="userSpaceOnUse">
      <stop stop-color="#74d7ff"/>
      <stop offset="1" stop-color="#228cff"/>
    </linearGradient>
    <linearGradient id="blueB" x1="200" y1="134" x2="394" y2="354" gradientUnits="userSpaceOnUse">
      <stop stop-color="#d8ecff"/>
      <stop offset="1" stop-color="#82bdff"/>
    </linearGradient>
    <linearGradient id="blueC" x1="254" y1="91" x2="368" y2="212" gradientUnits="userSpaceOnUse">
      <stop stop-color="#22d4ff"/>
      <stop offset="1" stop-color="#076dff"/>
    </linearGradient>
  </defs>
  <rect width="512" height="512" fill="#111316"/>
  <path d="M139 106C139 94.9543 147.954 86 159 86H200C211.046 86 220 94.9543 220 106V406C220 417.046 211.046 426 200 426H159C147.954 426 139 417.046 139 406V106Z" fill="#51A8FF"/>
  <path d="M200 166C200 148.327 214.327 134 232 134H284C313.178 134 341.157 145.592 361.787 166.213C382.408 186.843 394 214.822 394 244C394 273.178 382.408 301.157 361.787 321.787C341.157 342.408 313.178 354 284 354H232C214.327 354 200 339.673 200 322C200 304.327 214.327 290 232 290H284C296.202 290 307.906 285.152 316.535 276.523C325.152 267.906 330 256.202 330 244C330 231.798 325.152 220.094 316.535 211.477C307.906 202.848 296.202 198 284 198H232C214.327 198 200 183.673 200 166Z" fill="#B8D8FF"/>
  <path d="M318 97C328.5 90.5 342 92.5 350 102L365 120C372.5 129 372 142.5 363.5 151L306 208.5C298 216.5 285 217 275.5 210.5L258.5 198.5C247 190.5 245.5 174 255 164.5L318 97Z" fill="#178BFF"/>
  <path d="M145 117C145 103.745 155.745 93 169 93H201C207.627 93 213 98.3726 213 105V164C213 170.627 207.627 176 201 176H169C155.745 176 145 165.255 145 152V117Z" fill="#8ee6ff" opacity="0.55"/>
</svg>
